<svg height="56" viewBox="0 0 56 56" width="56" xmlns="http://www.w3.org/2000/svg"><g fill="#fff"><path d="m38.5 0h-21c-9.6635 0-17.5 7.8365-17.5 17.5v21c0 9.6635 7.8365 17.5 17.5 17.5h21c9.6635 0 17.5-7.8365 17.5-17.5v-21c0-9.6635-7.8365-17.5-17.5-17.5zm12.25 38.5c0 6.755-5.495 12.25-12.25 12.25h-21c-6.755 0-12.25-5.495-12.25-12.25v-21c0-6.755 5.495-12.25 12.25-12.25h21c6.755 0 12.25 5.495 12.25 12.25z"/><path d="m28 14c-7.7315 0-14 6.2685-14 14s6.2685 14 14 14 14-6.2685 14-14-6.2685-14-14-14zm0 22.75c-4.823 0-8.75-3.927-8.75-8.75 0-4.8265 3.927-8.75 8.75-8.75s8.75 3.9235 8.75 8.75c0 4.823-3.927 8.75-8.75 8.75z"/><circle cx="43.5" cy="12.5" r="1.5"/></g></svg>