<svg height="56" viewBox="0 0 56 56" width="56" xmlns="http://www.w3.org/2000/svg"><path d="m28 0c-15.4385 0-28 12.5615-28 28s12.5615 28 28 28 28-12.5615 28-28-12.5615-28-28-28zm12.845 40.418c-.343.4865-.882.7455-1.4315.7455-.35 0-.7-.1015-1.0045-.3185-6.5625-4.613-17.479-4.8685-24.85-3.15-.9345.2205-1.883-.3675-2.1-1.309s.364-1.883 1.309-2.1035c8.1025-1.876 20.2125-1.533 27.65 3.6995.791.5565.98 1.645.427 2.436zm3.416-6.8285c-.343.476-.8785.728-1.421.728-.357 0-.7105-.105-1.022-.329-7.6125-5.4635-16.9645-6.8215-29.4455-4.2735-.9415.1855-1.8725-.4165-2.065-1.365-.196-.945.4165-1.8725 1.3615-2.065 13.4995-2.7545 23.7265-1.2145 32.1895 4.858.784.567.966 1.659.4025 2.4465zm3.451-9.17c-.3395.5005-.8925.7665-1.449.7665-.3395 0-.6825-.098-.9835-.301-9.6495-6.5485-24.318-6.58-33.8135-3.22-.91.315-1.911-.1575-2.233-1.071-.322-.91.154-1.911 1.0675-2.233 10.3285-3.6505 26.334-3.5735 36.9495 3.626.798.5425 1.001 1.631.462 2.4325z" fill="#fff"/></svg>