<svg height="56" viewBox="0 0 70 56" width="70" xmlns="http://www.w3.org/2000/svg"><path d="m70 6.62953846c-2.603125 1.12430769-5.376875 1.86953846-8.26875 2.23138462 2.975-1.74892308 5.245625-4.49723077 6.313125-7.80984616-2.77375 1.6283077-5.83625 2.77846154-9.1 3.4203077-2.63375-2.76123077-6.3875-4.47138462-10.4825-4.47138462-7.945 0-14.34125 6.34953846-14.34125 14.1335385 0 1.12.09625 2.196923.3325 3.2221538-11.930625-.5729231-22.4875-6.2030769-29.579375-14.7796923-1.238125 2.11507692-1.964375 4.536-1.964375 7.14215385 0 4.89353845 2.559375 9.23138465 6.374375 11.74276925-2.305625-.0430769-4.5675-.7021539-6.48375-1.7403077v.1550769c0 6.8664615 4.974375 12.5698462 11.4975 13.8836923-1.168125.3144616-2.44125.4652308-3.7625.4652308-.91875 0-1.84625-.0516923-2.716875-.2412308 1.859375 5.5956923 7.135625 9.7095385 13.409375 9.8430769-4.8825 3.7606154-11.081875 6.0264616-17.793125 6.0264616-1.176875 0-2.305625-.0516923-3.434375-.1938462 6.356875 4.0363077 13.890625 6.3409231 22.015 6.3409231 26.4075 0 40.845-21.5384615 40.845-40.208 0-.6246154-.021875-1.2276923-.0525-1.8264615 2.848125-1.9901539 5.24125-4.47569235 7.1925-7.33600004z" fill="#fff"/></svg>