<svg height="56" viewBox="0 0 80 56" width="80" xmlns="http://www.w3.org/2000/svg"><path d="m76.6 5.39636364c-2.17-3.93018182-4.525-4.65309091-9.32-4.928-4.79-.33090909-16.835-.46836364-27.27-.46836364-10.455 0-22.505.13745455-27.29.46327273-4.785.28-7.145.99781818-9.335 4.93309091-2.235 3.92509091-3.385 10.68581816-3.385 22.58836366v.0152727.0152727.0101818c0 11.8516364 1.15 18.6632728 3.385 22.5476364 2.19 3.9301818 4.545 4.6429091 9.33 4.9738182 4.79.2850909 16.84.4530909 27.295.4530909 10.435 0 22.48-.168 27.275-.448 4.795-.3309091 7.15-1.0436364 9.32-4.9738182 2.255-3.8843636 3.395-10.696 3.395-22.5476363 0 0 0-.0152728 0-.0254546 0 0 0-.0101818 0-.0152727 0-11.9076364-1.14-18.66836365-3.4-22.59345456zm-46.6 37.87636366v-30.5454546l25 15.2727273z" fill="#fff"/></svg>